<svg width="806" height="641" viewBox="0 0 806 641" fill="none" xmlns="http://www.w3.org/2000/svg">
<path d="M404.296 0C578.843 175.611 755.987 348.668 927 527.727C910.524 548.034 891.537 566.128 873.444 584.987C759.35 700.827 644.319 815.687 528.522 929.823C507.023 950.471 486.035 971.715 463.301 991C377.05 909.261 294.076 824.159 209.825 740.376C139.709 669.621 69.081 599.377 0.369141 527.259C55.7984 465.784 115.613 408.439 173.468 349.306C177.683 345.305 181.43 340.579 186.623 337.812C211.23 336.833 235.837 337.897 260.444 337.429C196.841 401.245 133.11 464.89 69.4641 528.664C184.324 643.354 298.163 759.151 414.598 872.223C430.861 887.251 446.23 903.258 463.642 917.009C496.21 889.933 525.798 859.451 556.279 830.076C657.091 730.244 757.178 629.688 857.394 529.26C791.236 458.505 721.29 391.368 653.174 322.486C570.371 239.427 487.014 156.879 404.083 73.9057C404.211 49.2563 404.211 24.6494 404.296 0Z" fill="white" fill-opacity="0.05"/>
<path d="M404.381 141.255C510.003 244.237 613.539 349.391 717.842 453.694C742.108 478.556 766.927 502.865 790.427 528.408C683.698 640.118 573.095 748.082 463.982 857.535C354.444 747.826 244.266 638.798 134.813 529.047C189.561 474.086 244.522 419.338 299.312 364.419C308.551 355.564 316.554 345.091 327.197 337.854C349.633 336.875 372.154 337.045 394.504 339.004C336.308 400.478 274.62 458.632 217.361 521.001C213.146 524.534 210.251 530.154 216.126 533.73C289.776 610.445 365.64 685.075 441.589 759.491C449.21 767.112 457.213 774.264 465.558 781.075C540.315 708.532 612.943 633.775 685.912 559.401C696.3 548.715 707.071 538.285 715.798 526.152C615.072 418.997 508.726 317.249 405.829 212.266C401.742 189.404 405.318 164.797 404.381 141.255Z" fill="white" fill-opacity="0.05"/>
<path d="M304.932 497.757C357.253 444.243 408.851 389.921 463.429 338.706C527.841 399.287 590.635 461.74 650.662 526.748C590.635 591.331 528.82 654.338 465.174 715.344C417.578 671.963 372.452 625.985 326.984 580.347C310.466 562.765 292.628 546.332 277.686 527.387C285.732 516.616 295.736 507.506 304.932 497.757ZM463.429 419.118C463.429 419.118 418.856 462.421 400.039 481.834C392.801 488.476 386.075 495.628 379.987 503.333C371.771 511.848 363.809 520.66 356.828 530.239C392.078 565.83 426.008 603.038 463.855 635.819C501.574 602.485 536.185 565.617 570.882 529.175C548.19 500.651 521.923 475.236 496.167 449.522C492.421 446.116 463.429 419.118 463.429 419.118Z" fill="white" fill-opacity="0.05"/>
</svg>
