<svg class="tool-icon" fill="none" height="42" viewBox="0 0 43 42" width="43" xmlns="http://www.w3.org/2000/svg"> <path d="M17.6369 3.7496C18.7499 4.51769 19.8138 5.02385 20.6905 5.13547C20.2126 6.08486 19.8791 7.10447 19.705 8.15794C18.2909 7.84766 16.9491 7.10214 15.8479 6.34221C15.3035 5.96654 14.7881 5.56624 14.3166 5.17213V9.86206C14.3166 10.5052 13.9256 11.0836 13.3291 11.3234L13.3161 11.3288C13.303 11.3342 13.2807 11.3436 13.2499 11.3569C13.1882 11.3836 13.0926 11.426 12.9693 11.484C12.7221 11.6004 12.366 11.7783 11.948 12.0171C11.1039 12.4994 10.0492 13.2068 9.13032 14.1258C8.17793 15.0781 7.59081 16.3573 7.25922 17.3506C6.83393 18.6246 5.75106 19.799 4.20956 20.0558C3.98282 20.0936 3.81663 20.2897 3.81663 20.5197V24.2008C3.81663 24.5481 4.06781 24.8446 4.41051 24.9017C5.72072 25.1201 6.75295 25.9755 7.33337 27.0145C7.86125 27.9595 8.79974 29.4178 10.1803 30.7983C11.2531 31.8712 12.5024 32.559 13.5077 32.9798C14.006 33.1883 14.4317 33.3259 14.7262 33.4099C14.8731 33.4519 14.9861 33.4802 15.0579 33.497C15.0938 33.5054 15.1192 33.5111 15.1333 33.514L15.1434 33.5162L15.1457 33.5168C15.8839 33.6619 16.4166 34.3091 16.4166 35.0622V37.6872C16.4166 37.977 16.6517 38.2122 16.9416 38.2122H19.5666C19.5666 36.4723 20.977 35.0622 22.7166 35.0622H26.9166C28.6563 35.0622 30.0666 36.4723 30.0666 38.2122H32.6916C32.9816 38.2122 33.2166 37.977 33.2166 37.6872V32.9622C33.2166 32.3681 33.552 31.8244 34.0814 31.5562L34.1093 31.5413C34.1385 31.5253 34.1887 31.4974 34.2568 31.4569C34.393 31.3758 34.5997 31.2452 34.8538 31.0619C35.3635 30.6937 36.0537 30.1196 36.7459 29.3122C38.1157 27.7138 39.5166 25.1796 39.5166 21.4122C39.5166 19.2981 39.1214 17.5893 38.4484 16.1882C39.1999 15.1907 39.7665 14.0683 40.1244 12.8787C40.3327 13.164 40.5303 13.4602 40.7164 13.7678C41.9852 15.864 42.6666 18.3943 42.6666 21.4122C42.6666 26.0446 40.9175 29.2853 39.1374 31.362C38.2545 32.3922 37.3698 33.1304 36.6982 33.6155C36.581 33.6999 36.4702 33.777 36.3666 33.8469V37.6872C36.3666 39.7168 34.7213 41.3622 32.6916 41.3622H30.0666C28.327 41.3622 26.9166 39.9518 26.9166 38.2122H22.7166C22.7166 39.9518 21.3063 41.3622 19.5666 41.3622H16.9416C14.912 41.3622 13.2666 39.7168 13.2666 37.6872V36.2537C12.9767 36.1558 12.6478 36.0345 12.2917 35.8856C11.0399 35.3616 9.40168 34.4746 7.95293 33.0258C6.30647 31.3794 5.20372 29.6614 4.58334 28.5507C4.40024 28.2229 4.12675 28.048 3.89265 28.0089C2.03106 27.6987 0.666626 26.088 0.666626 24.2008V20.5197C0.666626 18.75 1.94607 17.2397 3.6917 16.9486C3.87421 16.9182 4.14318 16.7369 4.2713 16.3533C4.67523 15.1431 5.45901 13.3423 6.90293 11.8984C8.08401 10.7173 9.39187 9.8497 10.3852 9.28209C10.6716 9.11843 10.9353 8.9778 11.1666 8.86001V2.8715C11.1666 0.901911 13.5409 0.0934528 14.8203 1.36744C15.5143 2.05844 16.5218 2.98001 17.6369 3.7496Z" fill="#014086"></path> <path d="M23.9136 13.743C22.8844 13.3168 22.016 12.5076 21.8092 11.4131C21.0868 7.58796 23.1126 3.65086 26.8513 2.10184C31.1372 0.326141 36.0512 2.36106 37.8269 6.64695C39.3759 10.3857 38.0252 14.6024 34.8098 16.7968C33.8898 17.4247 32.7035 17.383 31.6743 16.9569L23.9136 13.743ZM33.1412 14.1199C35.0723 12.7295 35.8661 10.144 34.9167 7.85267C33.8069 5.17397 30.7356 3.90215 28.0571 5.01196C25.7658 5.9613 24.4993 8.35098 24.8819 10.6996C24.8941 10.7092 24.909 10.7201 24.9268 10.732C24.9764 10.765 25.0409 10.8004 25.1188 10.8327L32.8795 14.0465C32.9576 14.0788 33.0282 14.0994 33.0866 14.1111C33.1076 14.1152 33.1259 14.1181 33.1412 14.1199Z" fill="#FD941F"></path> <path d="M15.3666 16.162C15.3666 17.3218 14.4264 18.262 13.2666 18.262C12.1068 18.262 11.1666 17.3218 11.1666 16.162C11.1666 15.0022 12.1068 14.062 13.2666 14.062C14.4264 14.062 15.3666 15.0022 15.3666 16.162Z" fill="#FD941F"></path> </svg>