<svg class="access-more-icon" width="61" height="80" viewBox="0 0 61 80" fill="none" xmlns="http://www.w3.org/2000/svg">
<g clip-path="url(#clip0_494_174)">
<path d="M15.962 0.00612993C16.4209 0.00509421 16.8817 -0.0104417 17.3406 0.012344C18.0148 0.0258082 18.6062 0.672092 18.5586 1.3453C18.5927 2.08894 17.8657 2.71969 17.1386 2.65444C14.4271 2.55501 11.6845 3.24169 9.36455 4.65544C7.08909 6.00911 5.23206 8.04739 4.08242 10.4316C3.07053 12.4875 2.58168 14.7982 2.67593 17.0881C2.74843 17.7479 2.26786 18.4118 1.61122 18.5298C0.896577 18.7059 0.142577 18.1653 0.025542 17.4475C-0.207493 13.344 1.16275 9.17425 3.78 6.00393C6.73177 2.38516 11.2962 0.146987 15.962 0.00612993Z" fill="#EE7E01"></path>
<path d="M13.1657 6.61279C13.6794 6.58172 14.2097 6.84894 14.4365 7.32226C14.739 7.83804 14.6023 8.53818 14.1579 8.92761C13.9218 9.16065 13.5862 9.22382 13.2848 9.32739C11.3708 9.91982 9.81106 11.5335 9.28389 13.4661C9.20724 13.7913 9.04049 14.1052 8.76603 14.305C8.22125 14.7525 7.32743 14.6303 6.909 14.0679C6.69357 13.781 6.58482 13.4081 6.64386 13.0518C7.36886 9.90636 10.0016 7.28083 13.1657 6.61279Z" fill="#EE7E01"></path>
<path d="M14.6868 14.9483C15.6532 13.9063 17.0555 13.259 18.4827 13.2714C25.6291 13.2714 32.7755 13.2714 39.9219 13.2714C41.3233 13.2694 42.6759 13.9239 43.6422 14.9193C44.536 15.8959 45.0995 17.202 45.0725 18.536C45.0725 19.2216 45.0725 19.9083 45.0653 20.5939C45.3211 20.5245 45.5272 20.3495 45.7623 20.2356C46.7276 19.7301 47.8627 19.4557 48.944 19.7032C49.8834 19.9041 50.7223 20.539 51.1615 21.3956C51.6369 22.2614 51.7353 23.2692 51.7094 24.2407C51.8564 28.2872 53.0113 32.3088 55.0858 35.7909C56.2126 37.563 57.5228 39.2295 58.428 41.1352C60.1152 44.6121 60.6186 48.5126 60.8671 52.3271C60.9914 55.2789 61.1768 58.269 60.6248 61.1917C60.1287 63.9322 58.9821 66.5795 57.179 68.7162C55.0123 71.2941 51.9849 73.0486 48.7793 73.9993C48.2739 75.2753 47.405 76.4012 46.2988 77.2121C45.2683 77.9858 44.07 78.513 42.8344 78.8589C41.0146 79.3809 39.112 79.5362 37.226 79.558C35.6279 79.5539 34.0205 79.4109 32.4762 78.9842C29.8994 78.3017 27.5462 76.9138 25.5711 75.1386C24.9839 74.5918 24.3759 74.0563 23.9016 73.4038C22.9446 72.4085 22.0249 71.3769 21.188 70.278C20.1875 70.2635 19.187 70.2842 18.1865 70.2635C17.2223 70.1765 16.259 69.8544 15.4926 69.2516C15.4553 69.2485 15.3818 69.2413 15.3445 69.2371C14.5304 69.9383 13.445 70.336 12.3679 70.2677C11.2472 70.2035 10.1774 69.6566 9.42335 68.8322C7.60568 66.8933 7.45447 63.6236 9.0971 61.5335C9.10228 61.4942 9.11264 61.4144 9.11782 61.3751C7.74343 60.416 6.87965 58.8179 6.67872 57.169C6.40529 55.167 7.15204 53.0655 8.6331 51.6912C7.29497 50.5094 6.5824 48.6959 6.63211 46.9238C6.66318 45.2501 7.36125 43.5681 8.62482 42.4516C7.42236 41.2968 6.67147 39.68 6.63315 38.0073C6.56272 36.2259 7.24525 34.3948 8.56889 33.183C9.49896 32.2975 10.7812 31.7703 12.0706 31.8221C12.4725 31.8179 12.8629 31.9215 13.2576 31.9836C13.2617 27.4659 13.2586 22.9481 13.2586 18.4303C13.2897 17.1481 13.7992 15.8773 14.6868 14.9483ZM15.9276 18.4324C15.9162 21.7819 15.9255 25.1303 15.9224 28.4798C15.9369 30.284 15.8934 32.0913 15.9442 33.8945C17.6345 36.0343 17.6707 39.2947 16.0726 41.4956C16.0094 41.6013 15.9038 41.7017 15.9235 41.8374C15.9297 42.3801 15.9017 42.9259 15.939 43.4676C16.7407 44.7415 17.2678 46.2247 17.2264 47.7451C17.2637 48.9921 16.8504 50.2505 16.0488 51.2106C15.8385 51.4146 15.9463 51.7243 15.9214 51.9832C15.9525 52.3126 15.8303 52.6989 16.0612 52.9785C16.8453 54.1748 17.2015 55.5999 17.2627 57.0168C25.6353 57.0085 34.0091 57.0033 42.3807 57.0199C42.4739 56.6967 42.417 56.357 42.4315 56.0266C42.4304 50.0537 42.4366 44.0807 42.4284 38.1078C42.0037 36.0913 41.258 34.1431 40.9711 32.0945C40.5434 29.1841 40.9732 26.1049 42.4325 23.5281C42.4284 21.8295 42.4398 20.131 42.4273 18.4324C42.3745 17.0839 41.1689 15.9104 39.8163 15.9156C32.7393 15.9166 25.6612 15.9146 18.5842 15.9166C17.2181 15.8783 15.9473 17.059 15.9276 18.4324ZM46.9171 22.6394C45.7489 23.2723 44.913 24.3815 44.3579 25.5653C43.3657 27.6968 43.23 30.1504 43.7013 32.4321C44.1953 34.5273 44.8737 36.576 45.3263 38.6826C45.6391 40.1927 45.8162 41.797 45.3325 43.2926C45.2496 43.6043 45.0539 43.8922 45.0705 44.2257C45.0725 51.164 45.0725 58.1032 45.0705 65.0425C45.0932 66.7866 44.1176 68.4769 42.6604 69.4142C41.8732 69.9414 40.9338 70.2262 39.9903 70.2687C34.8718 70.2873 29.7533 70.249 24.6359 70.2873C25.2117 70.9823 25.9046 71.5716 26.4515 72.2904C28.4494 74.3546 30.9827 75.9869 33.8226 76.57C35.3151 76.9014 36.8531 76.9345 38.3746 76.8683C39.9955 76.7802 41.6371 76.57 43.1523 75.9568C44.4055 75.4556 45.5769 74.5949 46.1569 73.3448C46.4045 72.8891 46.4252 72.3101 46.8218 71.9424C47.1895 71.6151 47.7043 71.5685 48.1538 71.4142C50.6933 70.6229 53.0972 69.2465 54.8673 67.2382C56.6756 65.23 57.7372 62.6324 58.1215 59.9758C58.4311 58.0204 58.3069 56.0339 58.2924 54.0629C58.1215 50.3831 57.8397 46.6141 56.4219 43.1714C55.6938 41.3558 54.5462 39.7608 53.4514 38.1554C52.1288 36.2456 51.1594 34.112 50.4251 31.9132C49.698 29.6957 49.2247 27.3892 49.0859 25.0589C49.0372 24.3629 49.1191 23.6544 48.9482 22.9719C48.8715 22.7161 48.7307 22.4458 48.4759 22.3318C47.9404 22.1817 47.3873 22.3888 46.9171 22.6394ZM11.7143 34.4901C11.2462 34.5346 10.804 34.75 10.4497 35.0535C9.01528 36.3139 8.92414 38.7178 10.1028 40.1782C10.5564 40.7178 11.2348 41.1186 11.9567 41.0886C12.5999 41.1072 13.2058 40.7768 13.6418 40.3222C14.8681 38.9933 14.8992 36.7614 13.7506 35.3756C13.2617 34.7873 12.488 34.3979 11.7143 34.4901ZM11.1934 43.8902C10.7501 44.0528 10.3658 44.3562 10.0696 44.7198C9.01114 46.0672 9.02668 48.1532 10.1225 49.4758C10.5937 50.0361 11.3104 50.4338 12.0582 50.3799C12.7873 50.3427 13.5569 50.0941 14.0312 49.511C14.663 48.7414 14.6817 47.6519 14.4704 46.7239C14.2518 45.7431 13.7661 44.7716 12.9634 44.145C12.4704 43.7441 11.7796 43.6437 11.1934 43.8902ZM11.4823 53.0883C10.5834 53.2851 9.89046 54.0329 9.57146 54.8729C9.07328 56.1064 9.23382 57.6082 10.051 58.6708C10.4839 59.2197 11.1354 59.634 11.85 59.6537C12.5709 59.6755 13.3228 59.4683 13.8686 58.9815C14.5304 58.3135 14.6868 57.2995 14.5429 56.4026C14.3699 55.2416 13.8417 54.064 12.8712 53.3618C12.4777 53.0573 11.9598 52.9889 11.4823 53.0883ZM16.5936 59.6848C16.4341 60.039 16.1627 60.3207 15.9514 60.6428C15.8903 60.8551 15.9307 61.083 15.9287 61.3036C17.2585 62.8478 17.5827 65.1233 16.8825 67.0176C17.3662 67.3967 17.9711 67.6339 18.5925 67.6049C25.6695 67.608 32.7455 67.6059 39.8225 67.6059C40.8189 67.6121 41.7821 66.9741 42.1839 66.0648C42.3818 65.6505 42.4429 65.1865 42.4335 64.7318C42.4294 63.0477 42.4346 61.3637 42.4315 59.6796C33.8185 59.6744 25.2055 59.6651 16.5936 59.6848ZM12.0965 62.4087C11.3953 62.6821 10.9334 63.3595 10.7366 64.0638C10.4995 64.969 10.6186 65.985 11.1582 66.7639C11.4927 67.261 12.0665 67.6639 12.69 67.6038C13.1892 67.5924 13.6263 67.2776 13.9328 66.9047C14.8494 65.7592 14.7987 63.9592 13.8086 62.8748C13.3798 62.4232 12.6993 62.1601 12.0965 62.4087Z" fill="#444444"></path>
<path d="M34.9992 37.0514H37.0538V38.705H34.9992V40.2656H37.0538V41.9192H34.9992V47.0247H32.5927L29.6345 41.9192H26.4099V47.0247H24.0129V41.9192H22.0059V40.2656H24.0129V38.705H22.0059V37.0514H24.0129V31.9768H26.4099L29.3491 37.0514H32.6117V31.9768H34.9992V37.0514ZM31.204 40.2656H32.6117V38.705H30.3003L31.204 40.2656ZM26.4099 40.2656H28.6738L27.7701 38.705H26.4099V40.2656ZM32.6117 42.6943V41.9192H32.1647L32.6117 42.6943ZM26.4099 37.0514H26.819L26.4099 36.3486V37.0514Z" fill="#EE7E01"></path>
<path d="M26.5181 63.6908C26.4663 62.9814 27.0939 62.3134 27.8024 62.3113C28.7024 62.3102 29.6035 62.3082 30.5035 62.3123C30.9385 62.3133 31.3766 62.5288 31.6065 62.9047C31.9307 63.3822 31.8748 64.0596 31.5195 64.507C31.2523 64.7835 30.8867 64.9731 30.4952 64.972C29.5993 64.9751 28.7024 64.9772 27.8065 64.972C27.1312 64.9586 26.5233 64.3713 26.5181 63.6908Z" fill="#444444"></path>
</g>
<defs>
<clipPath id="clip0_494_174">
<rect width="61" height="80" fill="white"></rect>
</clipPath>
</defs>
</svg>