<svg class="access-more-icon" fill="none" height="52" viewBox="0 0 52 52" width="52" xmlns="http://www.w3.org/2000/svg"> <path class="path-1" d="M3.51411 46.0124H18.5492V50.1122H15.247H15.197V50.1622V51.8421V51.8921H15.247H30.332H30.382V51.8421V50.1622V50.1122H30.332H27.0298V46.0124H42.0648C43.4805 46.0107 44.6273 44.8612 44.6289 43.4426V30.8432V30.7932H44.5789H42.9028H42.8528V30.8432V35.8329H2.72611V13.2041C2.7265 12.7677 3.07909 12.4145 3.51421 12.4141H21.1134H21.1634V12.3641V10.6842V10.6342H21.1134L3.51417 10.6342L3.51411 10.6342C2.09841 10.6359 0.951669 11.7854 0.95 13.204V13.2041L0.95 43.4425L0.95 43.4426C0.951669 44.8612 2.09841 46.0107 3.51411 46.0124ZM25.2536 50.1122H20.3253V46.0124H25.2536V50.1122ZM3.51421 44.2325C3.07909 44.2321 2.7265 43.8789 2.72611 43.4425V37.6128H42.8528V43.4425C42.8524 43.8789 42.4999 44.2321 42.0647 44.2325H3.51421Z" fill="#444444" stroke="#444444" stroke-width="0.1"></path> <path class="path-1" d="M25.2104 40.3422C25.2104 41.3449 24.3974 42.1579 23.3946 42.1579C22.3919 42.1579 21.5789 41.3449 21.5789 40.3422C21.5789 39.3394 22.3919 38.5264 23.3946 38.5264C24.3974 38.5264 25.2104 39.3394 25.2104 40.3422Z" fill="#444444"></path> <path class="path-3" d="M37.3159 0.95H37.3159C29.2657 0.95 22.7396 7.47618 22.7396 15.5263C22.7396 23.5764 29.2657 30.1026 37.3159 30.1026C45.366 30.1026 51.8922 23.5764 51.8922 15.5263V15.5263C51.8834 7.47993 45.3623 0.958792 37.3159 0.95ZM31.3306 8.22634C30.0302 8.04937 28.7465 7.76732 27.4923 7.38248C29.0641 5.4882 31.1483 4.08772 33.4946 3.34825C32.4873 4.83143 31.754 6.48362 31.3306 8.22634ZM26.4137 8.91594C27.8808 9.41772 29.3927 9.77838 30.9282 9.99279C30.6479 11.5198 30.4881 13.0663 30.4507 14.6185H24.5954C24.7369 12.5997 25.3605 10.6441 26.4137 8.91594ZM30.9282 21.0598C29.3927 21.2743 27.8808 21.6349 26.4136 22.1367C25.3592 20.4064 24.7357 18.4487 24.595 16.4275H30.4507C30.4876 17.9818 30.6475 19.5307 30.9282 21.0598ZM31.3306 22.8263C31.754 24.569 32.4873 26.2212 33.4946 27.7044C31.1483 26.9649 29.0641 25.5644 27.4923 23.6702C28.7465 23.2853 30.0302 23.0033 31.3306 22.8263ZM36.4114 28.0459C35.8007 27.7251 35.1921 27.091 34.6353 26.1856C34.0648 25.2578 33.5512 24.0491 33.1469 22.6116C34.1944 22.5119 35.2885 22.4504 36.4114 22.4282V28.0459ZM36.4114 16.4275V20.6196C35.1455 20.6436 33.9081 20.7157 32.7269 20.8366C32.453 19.3816 32.2967 17.9072 32.259 16.4275H36.4114ZM36.4114 14.6185H32.2594C32.2972 13.1408 32.4534 11.6685 32.7269 10.216C33.9081 10.3369 35.1456 10.4086 36.4114 10.433V14.6185ZM36.4114 8.62441C35.2885 8.60226 34.1944 8.54076 33.1469 8.44106C33.5512 7.00354 34.0648 5.79482 34.6353 4.86706C35.1921 3.96162 35.8007 3.32751 36.4114 3.00678V8.62441ZM43.3011 8.22634C42.8777 6.48362 42.1445 4.83143 41.1372 3.34825C43.4834 4.08773 45.5676 5.4882 47.1394 7.38248C45.8853 7.76732 44.6015 8.04937 43.3011 8.22634ZM38.2204 8.62441V3.00678C38.831 3.32751 39.4397 3.96162 39.9964 4.86706C40.5669 5.79482 41.0806 7.00354 41.4849 8.44106C40.4373 8.54076 39.3433 8.60226 38.2204 8.62441ZM38.2204 14.6185V10.433C39.4862 10.409 40.7236 10.3369 41.9049 10.216C42.1784 11.6685 42.3346 13.1408 42.3724 14.6185H38.2204ZM38.2204 16.4275H42.3728C42.335 17.9072 42.1788 19.3816 41.9049 20.8366C40.7236 20.7157 39.4862 20.6436 38.2204 20.6196V16.4275ZM38.2204 28.0459V22.4282C39.3433 22.4504 40.4373 22.5119 41.4849 22.6116C41.0806 24.0491 40.5669 25.2578 39.9964 26.1856C39.4397 27.091 38.831 27.7251 38.2204 28.0459ZM43.3011 22.8263C44.6015 23.0033 45.8853 23.2853 47.1394 23.6701C45.5676 25.5644 43.4834 26.9649 41.1372 27.7044C42.1445 26.2212 42.8777 24.569 43.3011 22.8263ZM50.0367 16.4275C49.8961 18.4487 49.2725 20.4064 48.2181 22.1367C46.751 21.6349 45.239 21.2743 43.7035 21.0598C43.9843 19.5307 44.1441 17.9818 44.181 16.4275H50.0367ZM48.2181 8.91594C49.2713 10.6441 49.8948 12.5997 50.0363 14.6185H44.181C44.1437 13.0667 43.9839 11.5198 43.7035 9.99279C45.239 9.77838 46.751 9.41772 48.2181 8.91594Z" fill="#EE7E01" stroke="#EE7E01" stroke-width="0.1"></path> </svg>