<svg class="tool-icon" fill="none" height="36" viewBox="0 0 33 36" width="33" xmlns="http://www.w3.org/2000/svg"> <path d="M5.24871 3.21137C5.68992 1.71716 6.94387 0.441048 8.51629 0.122022C10.2977 -0.294664 12.1388 0.502898 13.426 1.69762C14.8358 2.94442 15.6718 4.64697 16.4812 6.29418C17.6357 4.00566 19.0157 1.55113 21.5037 0.457324C23.3448 -0.460688 25.8162 0.0243658 27.0038 1.72366C28.3971 3.52388 28.1251 5.97191 27.4218 7.98698C26.7716 7.98372 26.1214 7.98372 25.4712 7.98047C25.8395 6.39511 26.5295 4.61117 25.6106 3.07464C25.0201 1.88969 23.368 1.58042 22.2501 2.21522C19.9611 3.30251 18.8797 5.73426 17.9774 7.92186C17.012 7.98697 16.0433 7.99999 15.078 7.98372C14.0728 5.68543 12.9582 2.98349 10.374 2.03943C8.99067 1.42743 7.36518 2.47565 7.07657 3.85918C6.67849 5.24922 7.22253 6.65554 7.55095 8C6.87089 7.9707 6.19084 7.92838 5.51078 7.87304C5.07289 6.36906 4.75774 4.74139 5.24871 3.21137Z" fill="#F98537"></path> <path d="M1.35356 10.164C2.39954 9.91322 3.48499 10.0303 4.5507 10.0102C13.1093 10.0269 21.6679 10.0135 30.2265 10.0135C30.9501 10.0236 31.7691 10.0403 32.3119 10.6088C32.9796 11.2408 32.9763 12.2273 32.9895 13.0834C32.9796 14.538 33.0421 15.996 32.9434 17.4473C32.9105 18.3435 32.1145 18.8953 31.6935 19.6109C31.5323 20.0858 31.5817 20.6007 31.5619 21.0957C31.5882 25.0115 31.5685 28.924 31.5817 32.8399C31.5521 33.7428 31.5981 34.8496 30.7955 35.4516C30.2857 35.9398 29.5686 35.9933 28.9075 35.9967C20.6745 35.99 12.4416 35.9833 4.20533 36C3.46196 35.9833 2.5936 35.9699 2.05746 35.3546C1.38645 34.6992 1.42921 33.696 1.41606 32.8299C1.4325 28.6933 1.42592 24.5567 1.4325 20.4202C1.6167 19.1561 -0.0377875 18.6746 0.0411542 17.4273C-0.0180521 15.6549 -0.00818504 13.8759 0.0378643 12.1002C-0.00160656 11.2408 0.600324 10.4851 1.35356 10.164ZM1.98181 11.9397C1.84695 13.8224 1.8305 15.7151 1.97523 17.5978C5.51774 17.6179 9.06025 17.6112 12.6028 17.5978C12.6389 15.7118 12.6291 13.8257 12.6028 11.9397C9.06354 11.933 5.52103 11.9364 1.98181 11.9397ZM14.55 11.9397C14.5105 13.8291 14.5171 15.7185 14.5599 17.6078C15.8295 17.6179 17.0991 17.6179 18.3688 17.6012C18.5135 15.7118 18.5168 13.8157 18.3655 11.9297C17.0926 11.9263 15.8229 11.923 14.55 11.9397ZM20.4015 11.9196C20.339 13.8124 20.3292 15.7118 20.4015 17.6045C23.9408 17.5744 27.4833 17.6747 31.0225 17.5543C31.1113 15.6951 31.0948 13.8291 31.0225 11.9665C27.4833 11.8962 23.9408 11.9698 20.4015 11.9196ZM3.35342 19.5641C3.33368 24.3895 3.31395 29.215 3.36328 34.0437C6.44201 34.134 9.52732 34.0972 12.606 34.0672C12.6324 29.235 12.6225 24.4029 12.6159 19.5708C9.52732 19.5206 6.44201 19.5307 3.35342 19.5641ZM14.5368 19.5641C14.527 24.3862 14.5237 29.2116 14.5401 34.0337C15.8262 34.0571 17.1123 34.0571 18.4017 34.0337C18.4938 29.2116 18.5004 24.3828 18.3951 19.5607C17.109 19.5307 15.8229 19.5307 14.5368 19.5641ZM20.3851 19.5474C20.3456 24.3895 20.3423 29.2317 20.3884 34.0738C23.4507 34.1039 26.5195 34.1273 29.5818 34.0504C29.7298 29.2217 29.7002 24.3795 29.5982 19.5507C26.5261 19.534 23.4572 19.544 20.3851 19.5474Z" fill="#014086"></path> </svg>