<svg class="tool-icon" fill="none" height="37" viewBox="0 0 37 37" width="37" xmlns="http://www.w3.org/2000/svg"> <path d="M27.1719 9.39453C29.7619 9.39453 31.8691 7.28725 31.8691 4.69727C31.8691 2.10728 29.7619 0 27.1719 0C24.5819 0 22.4746 2.10728 22.4746 4.69727C22.4746 7.28725 24.5819 9.39453 27.1719 9.39453ZM27.1719 2.16797C28.5667 2.16797 29.7012 3.30248 29.7012 4.69727C29.7012 6.09205 28.5667 7.22656 27.1719 7.22656C25.7771 7.22656 24.6426 6.09205 24.6426 4.69727C24.6426 3.30248 25.7771 2.16797 27.1719 2.16797Z" fill="#EB7824"></path> <path d="M31.5078 11.5625H22.6155C20.6386 7.70476 16.6205 5.05859 11.9961 5.05859C5.42133 5.05859 0.0722656 10.4077 0.0722656 16.9824C0.0722656 23.5572 5.42133 28.9062 11.9961 28.9062C16.0246 28.9062 19.5922 26.8978 21.752 23.8302V37H32.5918V26.552C32.9311 26.6722 33.2958 26.7383 33.6758 26.7383C35.4689 26.7383 36.9277 25.2794 36.9277 23.4863V16.9824C36.9277 13.9938 34.4964 11.5625 31.5078 11.5625ZM18.0819 9.36348L14.9827 12.4627C14.1257 11.8945 13.0993 11.5625 11.9961 11.5625C10.8929 11.5625 9.86652 11.8945 9.00949 12.4627L5.90997 9.36348C7.5797 8.02713 9.69601 7.22656 11.9961 7.22656C14.2962 7.22656 16.4125 8.02713 18.0819 9.36348ZM8.74414 16.9824C8.74414 15.1893 10.203 13.7305 11.9961 13.7305C13.7892 13.7305 15.248 15.1893 15.248 16.9824C15.248 18.7755 13.7892 20.2344 11.9961 20.2344C10.203 20.2344 8.74414 18.7755 8.74414 16.9824ZM4.37715 10.8966L7.47639 13.9958C6.90814 14.8528 6.57617 15.8792 6.57617 16.9824C6.57617 18.0856 6.90814 19.112 7.47639 19.969L4.37715 23.0683C3.0408 21.3988 2.24023 19.2825 2.24023 16.9824C2.24023 14.6823 3.0408 12.566 4.37715 10.8966ZM5.91026 24.6014L9.00949 21.5021C9.86652 22.0704 10.8929 22.4023 11.9961 22.4023C13.0993 22.4023 14.1257 22.0704 14.9827 21.5021L18.0822 24.6014C16.4125 25.9377 14.2962 26.7383 11.9961 26.7383C9.69601 26.7383 7.5797 25.9377 5.91026 24.6014ZM19.615 23.0683L16.5158 19.969C17.084 19.112 17.416 18.0856 17.416 16.9824C17.416 15.8792 17.084 14.8528 16.5158 13.9958L19.615 10.8966C20.9514 12.566 21.752 14.6823 21.752 16.9824C21.752 19.2825 20.9514 21.3988 19.615 23.0683ZM34.7598 23.4863C34.7598 24.0839 34.2734 24.5703 33.6758 24.5703C33.0782 24.5703 32.5918 24.0839 32.5918 23.4863V16.5488H30.4238V34.832H28.2559V23.4863H26.0879V34.832H23.9199V16.9824C23.9199 15.8555 23.7627 14.7645 23.4691 13.7305H31.5078C33.3009 13.7305 34.7598 15.1893 34.7598 16.9824V23.4863Z" fill="#014086"></path> </svg>