<svg class="access-more-icon" fill="none" height="61" viewBox="0 0 61 61" width="61" xmlns="http://www.w3.org/2000/svg"> <path d="M29.4928 26L26.7937 32.037L24.1061 26H20.661V34.6669L16.8244 26H13.9179L10 35H12.3174L13.1758 32.9896H17.5646L18.4327 35H22.8602V28.3162L25.7958 35H27.7955L30.8027 28.4312V35H33V26H29.4928ZM14.0051 31.0455L15.3169 27.8994L16.681 31.0455H14.0051Z" fill="#EE7E01"></path> <path d="M47.1639 30.3892L51 26.0175H48.2745L45.819 28.805L43.4448 26H35V34.9806H43.169L45.7416 32.0123L48.2518 35H50.9679L47.1639 30.3892ZM42.0509 33.095H37.1117V31.3203H41.8374V29.6136H37.1117V27.9322L42.3248 27.9458L44.41 30.3911L42.0509 33.095Z" fill="#EE7E01"></path> <path d="M52.1041 10.1666H8.89587C3.99038 10.1666 0 14.1571 0 19.0625V41.9375C0 46.8429 3.99038 50.8334 8.89587 50.8334H52.1042C57.0096 50.8334 61 46.8429 61 41.9375V19.0625C61 14.1571 57.0096 10.1666 52.1041 10.1666ZM58.4584 41.9375C58.4584 45.4399 55.6091 48.2916 52.1042 48.2916H8.89587C5.39087 48.2916 2.54175 45.4399 2.54175 41.9375V19.0625C2.54175 15.5601 5.39099 12.7084 8.89587 12.7084H52.1042C55.6092 12.7084 58.4584 15.5601 58.4584 19.0625V41.9375Z" fill="#444444"></path> </svg>