<svg class="access-more-icon" fill="none" height="65" viewBox="0 0 52 65" width="52" xmlns="http://www.w3.org/2000/svg"> <path d="M18.4064 0.272355C21.9477 -1.02029 25.9879 2.53298 25.1822 6.23055C24.7433 10.2528 19.2481 12.1467 16.3923 9.31486C13.2659 6.81976 14.5645 1.24034 18.4064 0.272355ZM18.3162 3.26047C16.2299 4.57716 17.5466 8.39498 20.0778 7.90798C21.5749 8.11841 22.2062 6.72956 22.7413 5.6233C22.5068 4.92587 22.2843 4.24048 22.0679 3.54907C20.9736 2.85164 19.4285 2.26844 18.3162 3.26047Z" fill="#EE7E01"></path> <path d="M31.6579 0.284368C34.9467 -0.960178 38.8787 2.07602 38.4939 5.5872C38.6382 9.89802 32.6139 12.4653 29.6558 9.27275C26.6076 6.78967 27.756 1.18621 31.6579 0.284368ZM30.5577 4.06009C30.5156 5.40685 30.6779 6.77163 31.6579 7.79373C32.9867 7.84182 34.8865 8.23262 35.5238 6.66341C36.5339 5.07015 35.1752 2.68327 33.2933 2.7434C32.187 2.59309 31.4054 3.525 30.5577 4.06009Z" fill="#EE7E01"></path> <path d="M44.3376 0.49466C47.7465 -1.21885 52.1656 1.8294 51.7267 5.61715C51.883 9.77165 46.2495 12.3509 43.1952 9.50711C40.0628 7.31863 40.7422 1.82939 44.3376 0.49466ZM43.8265 4.96781C43.2193 7.75752 47.5601 9.12232 48.7566 6.6693C49.6584 5.36464 48.7205 3.93971 47.945 2.86351C46.2615 2.53884 44.061 2.90559 43.8265 4.96781Z" fill="#EE7E01"></path> <path d="M17.3239 12.6458C20.7389 10.5355 25.7231 13.5176 25.2301 17.5819C25.2601 21.6582 19.8551 24.2014 16.7588 21.526C13.6684 19.4637 14.0592 14.3292 17.3239 12.6458ZM18.5745 14.8282C18.1656 15.3092 17.7628 15.7902 17.36 16.2712C17.36 16.8003 17.36 17.8524 17.36 18.3815C17.7628 18.8384 18.1656 19.2954 18.5684 19.7583C19.8491 19.9147 21.1237 19.7523 22.2239 19.0248C22.7771 17.5518 22.4223 16.145 21.5566 14.8824C20.5585 14.8764 19.5665 14.8523 18.5745 14.8282Z" fill="#EE7E01"></path> <path d="M30.5747 12.6577C33.7732 10.6195 38.5049 13.2349 38.5169 17.0286C38.8957 20.6661 34.7412 23.7083 31.3863 22.2774C27.2077 21.0448 26.7027 14.6117 30.5747 12.6577ZM30.5506 16.235C30.5747 16.7701 30.6167 17.8343 30.6348 18.3694C31.0496 18.8383 31.4584 19.3073 31.8793 19.7883C33.8513 20.3654 36.118 19.2171 35.8955 16.9445C35.5408 14.2389 31.7411 14.0586 30.5506 16.235Z" fill="#EE7E01"></path> <path d="M44.2525 24.4058C47.4871 22.6923 51.828 25.3738 51.7378 29.0292C52.2368 32.9012 47.3729 35.8772 44.0601 33.9473C40.1581 32.2759 40.3205 25.969 44.2525 24.4058ZM44.992 27.0151C43.1583 28.1214 43.6272 31.0734 45.5812 31.7528C47.5172 32.5104 49.7177 30.4061 49.0082 28.44C48.5874 26.6784 46.4169 26.2876 44.992 27.0151Z" fill="#EE7E01"></path> <path class="path-1" d="M16.1699 27.8928C16.8312 25.9328 19.2843 24.5921 21.2683 25.4218C22.8195 25.8847 23.8957 27.4178 23.9017 29.0291C24.0701 34.6446 23.7514 40.2661 24.052 45.8816C25.9579 43.9276 27.8338 41.1199 30.906 41.2702C32.2047 41.162 33.2689 41.9977 34.3331 42.6109C34.6818 45.8996 32.3911 48.6112 31.381 51.5873C30.2988 54.8339 27.954 57.341 25.9339 60.0045C24.8637 61.1709 25.2304 62.8303 25.2665 64.2612C24.5991 63.4916 23.4869 63.7982 22.6091 63.672C22.2363 61.225 23.048 58.8802 24.7555 57.1186C28.3148 53.421 29.7517 48.3947 31.8199 43.8314C28.0382 43.6811 26.7997 48.1362 23.6191 49.3988C22.6572 48.3767 21.2623 47.4809 21.2563 45.9177C21.0158 39.9595 21.4427 33.9833 21.0519 28.0251C20.2522 28.0672 19.4646 28.0972 18.683 28.1573C18.4846 33.1836 18.5989 38.2159 18.6169 43.2422C17.8714 43.5669 17.0958 43.7172 16.2962 43.6931C15.9715 41.9435 15.9655 40.1519 15.731 38.3963C15.1178 38.4444 13.8912 38.5466 13.284 38.5947C13.2479 40.3443 13.2479 42.0939 13.2479 43.8495C12.3761 43.8495 11.5164 43.8615 10.6566 43.8795C10.6566 42.6831 10.6927 41.4866 10.5965 40.3022C10.0855 39.244 9.06338 40.0136 8.26976 40.1639C7.92706 41.7872 7.84288 43.4466 7.88496 45.106C7.0252 45.1 6.17145 45.1 5.32372 45.106C5.32372 44.1681 5.32372 43.2362 5.32974 42.3043C4.56016 42.671 2.79254 42.2081 2.84665 43.5007C2.70236 47.8416 2.69635 52.2126 2.84665 56.5595C3.91083 58.8802 5.88285 60.9184 5.4199 63.6961C4.57216 63.7081 3.73645 63.7201 2.90074 63.7441C2.95485 61.748 1.75841 60.1668 0.796438 58.5435C-0.297801 56.7218 0.0749693 54.5333 0.0148463 52.5192C0.0990185 49.2725 -0.129453 46.0199 0.123063 42.7853C0.796441 40.3803 3.37572 39.737 5.57021 39.6408C6.58628 37.5967 8.7808 37.1638 10.855 37.0255C12.4122 36.1176 14.1317 35.7148 15.9414 35.8651C16.0737 33.2077 15.8152 30.5262 16.1699 27.8928Z" fill="#444444"></path> <path d="M43.8322 12.6697C46.9947 10.6616 51.7805 13.1447 51.7384 16.9445C52.3096 20.9547 47.3314 24.0811 43.9224 21.9768C40.3631 20.2212 40.279 14.4794 43.8322 12.6697ZM44.9746 14.8341C44.0006 16.0065 43.207 17.8222 44.5237 19.0788C46.2492 21.1711 50.0189 19.0668 49.0088 16.4454C48.4557 14.6237 46.5077 14.6959 44.9746 14.8341Z" fill="#EE7E01"></path> <path d="M31.0623 24.3576C34.2849 22.7824 38.5777 25.4038 38.4815 29.0412C38.9204 33.0815 33.6957 36.0816 30.3949 33.7248C26.8116 31.7768 27.2505 25.8006 31.0623 24.3576ZM30.4129 28.3137C30.6474 29.3478 30.5212 30.7066 31.5733 31.3439C32.6976 32.348 34.2187 31.6986 35.343 31.0493C35.5535 30.3338 35.7699 29.6244 36.0044 28.927C35.5174 27.6524 34.5013 26.8166 33.2988 26.2635C32.2046 26.7565 31.2186 27.4299 30.4129 28.3137Z" fill="#EE7E01"></path> </svg>