<svg class="tool-icon" fill="none" height="44" viewBox="0 0 28 44" width="28" xmlns="http://www.w3.org/2000/svg"> <path d="M13.3031 0.0341171C14.806 -0.118999 16.3718 0.241918 17.5958 1.14421C19.2974 2.32175 20.3209 4.39976 20.2197 6.46683C20.155 7.22057 19.9336 7.94878 19.6829 8.65968C18.9711 10.601 18.0132 12.4384 17.0289 14.253C16.267 15.6301 15.4813 16.9963 14.6401 18.327C14.4387 18.6514 13.9957 18.7417 13.6585 18.5922C13.4097 18.4683 13.2821 18.2085 13.1427 17.9834C12.1 16.2909 11.1157 14.5629 10.1961 12.8011C9.32568 11.0959 8.4644 9.3642 7.96039 7.50949C7.58945 6.18065 7.80363 4.73425 8.4006 3.50476C9.30016 1.61359 11.2169 0.247387 13.3031 0.0341171ZM10.1797 3.55033C9.44781 4.59298 9.11879 5.97194 9.49793 7.20872C9.90169 8.65604 10.5488 10.0204 11.2132 11.362C12.0727 13.0745 13.0187 14.7424 14.0003 16.3884C15.4686 13.9067 16.8995 11.3884 17.9932 8.71619C18.3559 7.73461 18.7925 6.70471 18.6275 5.63745C18.4644 4.28401 17.6696 3.02171 16.5167 2.29441C15.7739 1.80954 14.8862 1.54705 13.9985 1.56255C12.5001 1.53429 11.0236 2.31628 10.1797 3.55033Z" fill="#EB7824"></path> <path d="M13.3393 3.17445C14.1568 3.01039 15.0427 3.15713 15.7335 3.63471C16.6614 4.23624 17.2027 5.37094 17.1061 6.46919C17.015 7.6367 16.2211 8.72583 15.1138 9.12594C14.1741 9.506 13.054 9.36109 12.2283 8.77961C11.5629 8.33757 11.1109 7.61027 10.9459 6.83466C10.7737 6.01895 10.9596 5.13671 11.4363 4.45406C11.871 3.80058 12.5773 3.34579 13.3393 3.17445ZM13.6008 4.71655C12.9556 4.89063 12.4406 5.50765 12.4607 6.18756C12.4014 6.99507 13.1069 7.73878 13.9043 7.77432C14.7684 7.84997 15.6032 7.06798 15.5394 6.19212C15.5795 5.21782 14.525 4.44039 13.6008 4.71655Z" fill="#EB7824"></path> <path d="M6.22214 20.9331C6.24219 20.5066 6.65597 20.1912 7.07066 20.2094C11.6915 20.2067 16.3133 20.2058 20.9341 20.2094C21.3461 20.1976 21.7872 20.5138 21.7744 20.9541C21.789 21.7397 21.7744 22.5262 21.7808 23.3128C22.6202 23.3173 23.4605 23.3028 24.3008 23.3383C25.1184 23.2973 25.9377 23.3173 26.7562 23.311C26.9904 23.3091 27.2274 23.3164 27.457 23.372C27.7906 23.4577 28.0221 23.804 27.9975 24.1449C27.9966 29.0975 27.9975 34.0492 27.9975 39.0018C27.9857 40.3452 28.0203 41.6895 27.9793 43.0329C27.8407 43.2817 27.6229 43.5406 27.3112 43.5342C26.8482 43.6272 26.4171 43.1942 26.4399 42.7422C26.4363 36.7916 26.4436 30.841 26.4363 24.8913C24.6289 24.8868 22.8207 24.895 21.0143 24.8877C20.6069 24.9023 20.2159 24.5623 20.2268 24.1449C20.2232 23.3666 20.2177 22.5873 20.2323 21.8099C19.5852 21.7333 18.9217 21.7625 18.2682 21.778C17.5391 21.7324 16.81 21.7944 16.0808 21.7798C14.7803 21.7561 13.4815 21.7916 12.1809 21.7561C11.6332 21.7479 11.0863 21.8208 10.5395 21.7716C9.87598 21.7278 9.21065 21.8135 8.54715 21.7661C8.28739 21.7506 8.02855 21.7825 7.76971 21.8017C7.77063 22.5827 7.77336 23.3638 7.76971 24.1449C7.78065 24.5623 7.39512 24.9023 6.98681 24.8877C5.17949 24.895 3.37126 24.8868 1.56302 24.8913C1.55665 30.8419 1.56394 36.7925 1.56029 42.744C1.5767 43.155 1.21487 43.5816 0.783769 43.5387C0.436523 43.5779 0.167657 43.3155 0.0200088 43.0311C-0.0200932 36.7351 0.0145429 30.4382 0.00269457 24.1413C-0.0374074 23.6719 0.40827 23.28 0.86762 23.3347C2.64942 23.3173 4.4294 23.3246 6.21212 23.3173C6.22396 22.5226 6.20209 21.7278 6.22214 20.9331Z" fill="#014086"></path> <path d="M4.66553 28.7877C4.63454 28.3356 5.07748 27.9446 5.52043 27.9975C7.55834 27.9975 9.59625 27.9957 11.6351 27.9984C12.0334 27.9638 12.4344 28.2855 12.428 28.6984C12.438 29.7629 12.4298 30.8283 12.4316 31.8928C12.4635 32.3221 12.0488 32.6912 11.6305 32.663C9.50237 32.6621 7.37332 32.6748 5.24427 32.6557C4.92163 32.5472 4.65368 32.2492 4.66553 31.8956C4.66097 30.8593 4.66097 29.823 4.66553 28.7877ZM6.21675 29.5578C6.2213 30.0737 6.21675 30.5895 6.22039 31.1054C7.77161 31.1154 9.32282 31.1072 10.874 31.1099C10.8841 30.5904 10.8804 30.0718 10.8786 29.5533C9.32465 29.5569 7.7707 29.5478 6.21675 29.5578Z" fill="#014086"></path> <path d="M15.5887 28.5694C15.6516 28.2139 16.0116 27.9715 16.3634 27.9988C18.4323 27.9979 20.5012 27.9934 22.571 28.0006C22.9811 27.987 23.3612 28.3734 23.3348 28.7863C23.3384 29.8216 23.3393 30.8579 23.3348 31.8942C23.3475 32.2487 23.0787 32.5477 22.7551 32.6561C20.627 32.6753 18.497 32.6625 16.368 32.6634C15.9824 32.6871 15.5851 32.3736 15.5714 31.9771C15.5231 31.3428 15.5541 30.7066 15.5386 30.0723C15.5732 29.5719 15.4839 29.0633 15.5887 28.5694ZM17.119 29.5582C17.1162 30.075 17.1071 30.5927 17.1226 31.1104C18.6747 31.1067 20.2269 31.1158 21.7799 31.1058C21.7826 30.5909 21.7799 30.0768 21.7826 29.5628C20.2278 29.5537 18.6729 29.5628 17.119 29.5582Z" fill="#014086"></path> <path d="M5.1611 35.8237C5.30328 35.7545 5.46643 35.7754 5.61954 35.769C7.62282 35.7736 9.62701 35.77 11.6312 35.7709C12.045 35.7417 12.4633 36.1063 12.4314 36.5346C12.4287 37.6028 12.4396 38.6719 12.4269 39.741C12.4287 40.152 12.0258 40.4674 11.6294 40.4355C9.56321 40.4327 7.49796 40.4373 5.43179 40.4336C5.01255 40.4555 4.63796 40.0554 4.6653 39.6407C4.66165 38.6063 4.65983 37.5727 4.66712 36.5383C4.66074 36.2275 4.86399 35.9222 5.1611 35.8237ZM6.21925 37.3266C6.22016 37.8425 6.21834 38.3584 6.21834 38.8751C7.77138 38.887 9.32533 38.8788 10.8784 38.8788C10.8793 38.3602 10.8866 37.8425 10.8729 37.3248C9.32168 37.3303 7.77047 37.3276 6.21925 37.3266Z" fill="#014086"></path> <path d="M15.9485 35.8742C16.098 35.7694 16.283 35.7676 16.458 35.7694C18.495 35.7749 20.5311 35.7676 22.5681 35.773C22.9773 35.7612 23.3492 36.1267 23.3328 36.5395C23.3401 37.5721 23.3373 38.6057 23.3346 39.6392C23.3619 40.0539 22.9892 40.4549 22.569 40.434C20.5001 40.4376 18.4312 40.4331 16.3623 40.4358C15.9895 40.4604 15.6022 40.1824 15.5794 39.7951C15.5101 38.716 15.5512 37.6341 15.5603 36.5532C15.5502 36.2734 15.7025 36.0063 15.9485 35.8742ZM17.1188 37.3252C17.1133 37.8428 17.1142 38.3605 17.1151 38.8791C18.6709 38.8791 20.2258 38.8873 21.7815 38.8755C21.7806 38.3587 21.7797 37.8428 21.7806 37.327C20.2267 37.3279 18.6727 37.3306 17.1188 37.3252Z" fill="#014086"></path> </svg>