<svg class="tool-icon" fill="none" height="44" viewBox="0 0 35 44" width="35" xmlns="http://www.w3.org/2000/svg"> <path d="M12.4408 0.184151C14.8343 -0.689534 17.5651 1.71208 17.0205 4.21123C16.7239 6.92981 13.0097 8.20986 11.0795 6.29588C8.9664 4.60947 9.84416 0.838398 12.4408 0.184151ZM12.3799 2.20379C10.9698 3.09372 11.8597 5.67415 13.5705 5.34499C14.5824 5.48722 15.009 4.54851 15.3707 3.8008C15.2122 3.32941 15.0619 2.86616 14.9156 2.39884C14.176 1.92746 13.1316 1.53328 12.3799 2.20379Z" fill="#F98537"></path> <path d="M21.3972 0.192201C23.62 -0.648974 26.2776 1.40316 26.0176 3.77633C26.1151 6.68997 22.0433 8.42515 20.044 6.26735C17.9837 4.58906 18.7599 0.801749 21.3972 0.192201ZM20.6535 2.74417C20.6251 3.65443 20.7348 4.57688 21.3972 5.2677C22.2953 5.3002 23.5794 5.56434 24.0101 4.50373C24.6928 3.42686 23.7744 1.8136 22.5025 1.85423C21.7548 1.75264 21.2265 2.38251 20.6535 2.74417Z" fill="#F98537"></path> <path d="M29.9673 0.334446C32.2714 -0.823694 35.2582 1.23658 34.9615 3.79668C35.0672 6.60467 31.2595 8.34797 29.1952 6.42587C27.078 4.9467 27.5372 1.23658 29.9673 0.334446ZM29.6219 3.3578C29.2115 5.24334 32.1454 6.16579 32.9541 4.50782C33.5636 3.62601 32.9297 2.66292 32.4055 1.93553C31.2677 1.71609 29.7804 1.96397 29.6219 3.3578Z" fill="#F98537"></path> <path d="M11.7092 8.54714C14.0174 7.1208 17.3862 9.13637 17.0529 11.8834C17.0733 14.6386 13.42 16.3575 11.3273 14.5491C9.23855 13.1553 9.50269 9.68497 11.7092 8.54714ZM12.5545 10.0222C12.2781 10.3473 12.0059 10.6724 11.7336 10.9975C11.7336 11.3551 11.7336 12.0663 11.7336 12.4239C12.0059 12.7327 12.2781 13.0415 12.5504 13.3544C13.416 13.4601 14.2775 13.3504 15.0211 12.8587C15.395 11.8631 15.1552 10.9122 14.57 10.0588C13.8955 10.0548 13.225 10.0385 12.5545 10.0222Z" fill="#F98537"></path> <path d="M20.665 8.55505C22.8269 7.17747 26.025 8.94515 26.0331 11.5093C26.2891 13.9678 23.4811 16.024 21.2136 15.0569C18.3894 14.2238 18.048 9.87573 20.665 8.55505ZM20.6488 10.9729C20.665 11.3346 20.6935 12.0538 20.7057 12.4155C20.9861 12.7325 21.2624 13.0494 21.5468 13.3745C22.8797 13.7646 24.4117 12.9885 24.2614 11.4524C24.0216 9.62379 21.4534 9.50188 20.6488 10.9729Z" fill="#F98537"></path> <path d="M29.9098 16.4958C32.096 15.3376 35.03 17.15 34.969 19.6207C35.3063 22.2377 32.0188 24.2492 29.7798 22.9448C27.1424 21.8151 27.2522 17.5523 29.9098 16.4958ZM30.4096 18.2594C29.1702 19.0071 29.4872 21.0024 30.8079 21.4616C32.1164 21.9736 33.6036 20.5513 33.1241 19.2225C32.8397 18.0318 31.3727 17.7677 30.4096 18.2594Z" fill="#F98537"></path> <path d="M10.9291 18.8523C11.3761 17.5276 13.034 16.6214 14.3751 17.1822C15.4235 17.4951 16.1509 18.5313 16.1549 19.6203C16.2687 23.4158 16.0533 27.2153 16.2565 31.0108C17.5447 29.6901 18.8125 27.7924 20.8891 27.8939C21.7668 27.8208 22.4861 28.3856 23.2054 28.8001C23.441 31.0229 21.8928 32.8556 21.2101 34.8672C20.4787 37.0615 18.8938 38.7561 17.5284 40.5563C16.8051 41.3446 17.053 42.4662 17.0774 43.4333C16.6263 42.9132 15.8745 43.1204 15.2812 43.0351C15.0293 41.3812 15.5779 39.7964 16.732 38.6057C19.1376 36.1066 20.1089 32.7093 21.5068 29.625C18.9507 29.5234 18.1136 32.5346 15.9639 33.388C15.3137 32.6972 14.371 32.0917 14.3669 31.0351C14.2044 27.0081 14.4929 22.9688 14.2287 18.9417C13.6883 18.9702 13.1559 18.9905 12.6277 19.0311C12.4936 22.4283 12.5708 25.8296 12.583 29.2268C12.0791 29.4462 11.5549 29.5478 11.0144 29.5316C10.795 28.3491 10.7909 27.1381 10.6324 25.9515C10.2179 25.984 9.38894 26.0531 8.97851 26.0856C8.95413 27.2681 8.95413 28.4507 8.95413 29.6372C8.3649 29.6372 7.7838 29.6454 7.2027 29.6576C7.2027 28.8489 7.22709 28.0402 7.16207 27.2397C6.81666 26.5245 6.12584 27.0446 5.58944 27.1462C5.35781 28.2434 5.30092 29.365 5.32936 30.4865C4.74826 30.4825 4.17122 30.4825 3.59824 30.4865C3.59824 29.8526 3.59825 29.2227 3.60231 28.5929C3.08216 28.8408 1.88745 28.5279 1.92402 29.4015C1.82649 32.3355 1.82243 35.2898 1.92402 38.2278C2.64329 39.7964 3.97615 41.1739 3.66325 43.0514C3.09028 43.0595 2.52543 43.0676 1.96058 43.0838C1.99715 41.7347 1.18849 40.666 0.538304 39.5688C-0.20128 38.3375 0.0506709 36.8583 0.0100344 35.497C0.0669255 33.3026 -0.0874961 31.1042 0.0831771 28.918C0.538306 27.2925 2.28161 26.8577 3.76484 26.7927C4.4516 25.411 5.93485 25.1185 7.33681 25.025C8.38929 24.4114 9.55148 24.1391 10.7746 24.2407C10.864 22.4446 10.6893 20.6322 10.9291 18.8523Z" fill="#014086"></path> <path d="M29.6256 8.56308C31.763 7.20582 34.9977 8.88411 34.9693 11.4523C35.3553 14.1628 31.9906 16.2759 29.6865 14.8536C27.2808 13.667 27.2239 9.78624 29.6256 8.56308ZM30.3977 10.026C29.7393 10.8184 29.2029 12.0456 30.0929 12.8949C31.2591 14.3091 33.807 12.8868 33.1243 11.1151C32.7505 9.88376 31.4339 9.93253 30.3977 10.026Z" fill="#F98537"></path> <path d="M20.9946 16.4632C23.1727 15.3985 26.0742 17.1703 26.0092 19.6288C26.3058 22.3595 22.7745 24.3873 20.5436 22.7943C18.1216 21.4777 18.4183 17.4384 20.9946 16.4632ZM20.5557 19.1371C20.7142 19.836 20.6289 20.7544 21.34 21.1851C22.0999 21.8638 23.128 21.4249 23.8879 20.986C24.0302 20.5024 24.1765 20.0229 24.3349 19.5515C24.0058 18.6901 23.319 18.1252 22.5063 17.7514C21.7667 18.0846 21.1003 18.5397 20.5557 19.1371Z" fill="#F98537"></path> </svg>