<svg class="tool-icon" fill="none" height="34" viewBox="0 0 47 34" width="47" xmlns="http://www.w3.org/2000/svg"> <path d="M28.0359 0.0239385C28.2662 -0.0196115 28.5249 -0.0133157 28.7243 0.124155C28.9604 0.274744 29.1147 0.548637 29.1058 0.830924C29.1047 1.89869 29.1079 2.96697 29.1042 4.03526C29.1089 4.45502 28.7421 4.81496 28.3303 4.84015C27.9981 4.86481 27.6565 4.67749 27.5154 4.37316C27.4367 4.22048 27.4183 4.0468 27.4215 3.87785C27.4251 2.86203 27.4178 1.84622 27.4246 0.830924C27.4293 0.468882 27.6749 0.108415 28.0359 0.0239385Z" fill="#EB7824"></path> <path d="M23.0981 2.32218C23.4654 2.21042 23.8915 2.38567 24.073 2.72515C24.5977 3.54683 25.1193 4.3706 25.6456 5.19176C25.8728 5.54278 25.7809 6.04492 25.4488 6.29625C25.1434 6.5502 24.6576 6.53079 24.3663 6.26477C24.2268 6.13727 24.1407 5.96621 24.0389 5.80985C23.5704 5.07003 23.0955 4.3344 22.6264 3.59458C22.4979 3.38994 22.4454 3.13127 22.5241 2.8983C22.5913 2.61864 22.8279 2.40456 23.0981 2.32218Z" fill="#EB7824"></path> <path d="M32.9615 2.5171C33.3655 2.43105 33.8178 2.69864 33.9238 3.10109C34.0103 3.35084 33.9453 3.62789 33.8026 3.84301C33.2815 4.6542 32.7621 5.46643 32.2479 6.28181C32.039 6.63283 31.5637 6.79392 31.1896 6.62234C30.8564 6.48539 30.6475 6.11968 30.678 5.76393C30.7163 5.468 30.9193 5.23661 31.0689 4.99053C31.4944 4.31472 31.9299 3.6452 32.3554 2.96939C32.4892 2.74849 32.6965 2.55435 32.9615 2.5171Z" fill="#EB7824"></path> <path d="M12.7875 9.01085C14.0604 8.60631 15.3968 8.39223 16.7332 8.40063C26.4931 8.40115 36.2531 8.4001 46.013 8.40115C46.4437 8.38804 46.8436 8.70233 46.9653 9.1095C47.023 9.32672 46.9973 9.55549 46.97 9.77534C46.7407 11.3232 46.5099 12.8716 46.2832 14.42C46.2528 14.6881 46.1316 14.9494 45.9243 15.1257C45.7076 15.3062 45.4269 15.3686 45.1719 15.473C39.7916 17.5078 34.4082 19.5332 29.0311 21.5753C28.9755 22.2574 28.9115 22.9411 28.7604 23.6101C28.3128 25.7241 27.298 27.7116 25.8656 29.3277C24.6336 30.7171 23.0968 31.8379 21.3883 32.5677C17.8335 34.1182 13.5593 33.87 10.2081 31.9176C8.4031 30.8708 6.85839 29.3734 5.76859 27.5931C5.21871 26.7121 4.80892 25.7529 4.47573 24.7723C3.74325 24.9229 2.97457 24.8085 2.29141 24.5157C1.4477 24.139 0.741454 23.4558 0.353702 22.6152C0.0136972 21.9148 -0.0618597 21.1125 0.0451788 20.348C0.212033 19.3065 0.837474 18.3547 1.71634 17.7744C2.52071 17.2324 3.53967 17.0162 4.49357 17.1972C4.77481 16.354 5.12636 15.5318 5.57865 14.7652C7.15117 12.0357 9.78516 9.95216 12.7875 9.01085ZM11.6557 11.2833C9.52491 12.3427 7.73621 14.0994 6.68891 16.2407C5.72452 18.1616 5.38923 20.3795 5.68621 22.504C5.94804 24.448 6.75922 26.3128 7.99541 27.8355C9.18018 29.2999 10.7396 30.4679 12.4978 31.151C14.5646 31.9669 16.8854 32.107 19.0424 31.585C21.0205 31.0954 22.8549 30.0397 24.2674 28.5711C25.7848 27.0138 26.8258 24.9937 27.1905 22.8487C27.2985 22.25 27.3442 21.6424 27.3557 21.0348C27.3694 20.6235 27.6774 20.2614 28.0615 20.1339C33.5446 18.063 39.0277 15.9925 44.5102 13.9205C44.5931 13.89 44.6871 13.8449 44.6802 13.7405C44.8544 12.5211 45.0465 11.3038 45.216 10.0839C40.6763 10.0812 36.1366 10.0807 31.5974 10.0839C31.5984 10.8489 31.5974 11.6139 31.5985 12.3789C31.5974 12.6119 31.6137 12.8506 31.5402 13.0757C31.4138 13.4771 31.0097 13.7767 30.5863 13.7683C29.029 13.7651 27.4712 13.7714 25.9139 13.7651C25.4039 13.7636 24.9526 13.3087 24.9495 12.7997C24.9442 11.8946 24.9484 10.989 24.9484 10.0839C22.2279 10.0797 19.5068 10.0828 16.7862 10.0823C15.0133 10.0707 13.2403 10.4889 11.6557 11.2833ZM26.6385 10.0812C26.6175 10.7476 26.6311 11.4145 26.6322 12.0814C27.7241 12.0872 28.8165 12.0882 29.9089 12.0803C29.9058 11.4145 29.9226 10.7476 29.9005 10.0818C28.8134 10.0818 27.7257 10.0828 26.6385 10.0812ZM2.02172 19.8118C1.67332 20.3412 1.59409 21.027 1.77563 21.6299C2.0553 22.5869 3.08004 23.2853 4.07486 23.1279C3.91536 22.0365 3.83508 20.9262 3.95418 19.8265C3.98042 19.497 4.05073 19.1737 4.07801 18.8448C3.28099 18.7131 2.4525 19.1428 2.02172 19.8118Z" fill="#014086"></path> <path d="M15.9142 13.8684C17.6919 13.7215 19.5152 14.2772 20.9057 15.3958C21.7216 16.0543 22.4084 16.8807 22.8696 17.8246C23.7349 19.5603 23.8435 21.6534 23.1603 23.4683C22.527 25.1846 21.2037 26.6343 19.552 27.4209C17.9301 28.21 16.0019 28.338 14.2871 27.7808C12.5368 27.2314 11.0356 25.9622 10.1693 24.3487C9.23797 22.6199 9.06797 20.5006 9.72175 18.6484C10.3199 16.8854 11.6537 15.3984 13.3196 14.5768C14.1292 14.1801 15.0144 13.9319 15.9142 13.8684ZM16.0711 15.5454C15.2919 15.5994 14.5259 15.8282 13.8422 16.2065C12.1327 17.1305 10.9847 19.0315 11.0225 20.9823C11.0031 21.9755 11.2922 22.9651 11.8074 23.812C12.7571 25.3997 14.5631 26.446 16.419 26.4313C17.5161 26.458 18.6112 26.1149 19.5184 25.5015C21.0138 24.5062 21.9598 22.7301 21.9157 20.9298C21.9268 19.1128 20.9241 17.3456 19.3904 16.3833C18.4129 15.7542 17.2302 15.4604 16.0711 15.5454Z" fill="#EB7824"></path> </svg>