<svg width="411" height="368" viewBox="0 0 411 368" fill="none" xmlns="http://www.w3.org/2000/svg">
<g opacity="0.11">
<path d="M179.202 0C256.64 77.9098 335.229 154.686 411.099 234.126C403.79 243.135 395.366 251.162 387.339 259.529C336.721 310.922 285.688 361.879 234.315 412.516C224.777 421.676 215.465 431.101 205.38 439.657C167.114 403.393 130.303 365.638 92.9252 328.468C61.8179 297.077 30.484 265.913 0 233.918C24.5912 206.645 51.1277 181.204 76.7955 154.97C78.6653 153.194 80.3274 151.098 82.6316 149.87C93.5484 149.436 104.465 149.908 115.382 149.7C87.1646 178.012 58.8904 206.249 30.654 234.542C81.6117 285.424 132.116 336.797 183.773 386.962C190.988 393.629 197.806 400.73 205.531 406.831C219.98 394.819 233.106 381.295 246.629 368.263C291.354 323.973 335.758 279.361 380.219 234.806C350.868 203.415 319.836 173.63 289.617 143.071C252.881 106.222 215.9 69.5994 179.108 32.7882C179.164 21.8525 179.164 10.9357 179.202 0Z" fill="#EB7824"/>
<path d="M179.14 60.668C226 106.356 271.933 153.008 318.207 199.281C328.973 210.311 339.984 221.096 350.41 232.428C303.059 281.988 253.99 329.887 205.582 378.446C156.986 329.773 108.106 281.403 59.5464 232.712C83.8354 208.328 108.219 184.039 132.527 159.675C136.625 155.746 140.176 151.1 144.898 147.889C154.851 147.455 164.843 147.53 174.759 148.399C148.94 175.672 121.572 201.472 96.1688 229.142C94.2989 230.71 93.0146 233.203 95.621 234.789C128.296 268.824 161.953 301.933 195.648 334.948C199.029 338.329 202.579 341.502 206.281 344.524C239.447 312.34 271.669 279.174 304.042 246.178C308.65 241.438 313.429 236.81 317.3 231.427C272.613 183.888 225.433 138.748 179.783 92.1719C177.969 82.0294 179.556 71.1126 179.14 60.668Z" fill="#EB7824"/>
<path d="M135.02 218.828C158.232 195.087 181.124 170.987 205.337 148.266C233.913 175.142 261.772 202.85 288.403 231.691C261.772 260.342 234.348 288.296 206.111 315.361C184.995 296.115 164.975 275.717 144.803 255.47C137.475 247.669 129.561 240.379 122.932 231.974C126.502 227.195 130.94 223.153 135.02 218.828ZM205.337 183.941C205.337 183.941 185.562 203.152 177.214 211.764C174.003 214.711 171.019 217.884 168.318 221.303C164.673 225.08 161.141 228.99 158.043 233.239C173.682 249.029 188.735 265.536 205.526 280.08C222.26 265.291 237.615 248.935 253.008 232.767C242.941 220.113 231.288 208.837 219.861 197.429C218.199 195.918 205.337 183.941 205.337 183.941Z" fill="#EB7824"/>
</g>
</svg>
